<svg width="30" height="30" viewBox="0 0 30 30" fill="none" xmlns="http://www.w3.org/2000/svg">
<path d="M5.625 27.4688C5.125 27.4688 4.6875 27.2812 4.3125 26.9062C3.9375 26.5312 3.75 26.0938 3.75 25.5938V6.75H5.625V25.5938H20.4375V27.4688H5.625ZM9.375 23.7188C8.875 23.7188 8.4375 23.5312 8.0625 23.1562C7.6875 22.7812 7.5 22.3438 7.5 21.8438V4.34375C7.5 3.84375 7.6875 3.40625 8.0625 3.03125C8.4375 2.65625 8.875 2.46875 9.375 2.46875H23.125C23.625 2.46875 24.0625 2.65625 24.4375 3.03125C24.8125 3.40625 25 3.84375 25 4.34375V21.8438C25 22.3438 24.8125 22.7812 24.4375 23.1562C24.0625 23.5312 23.625 23.7188 23.125 23.7188H9.375ZM9.375 21.8438H23.125V4.34375H9.375V21.8438ZM9.375 21.8438V4.34375V21.8438Z" fill="#F5F5F5"/>
</svg>
